<svg width="260" height="84" viewBox="0 0 260 84" fill="none" xmlns="http://www.w3.org/2000/svg">
<path d="M232.5 15.5C247.136 15.5 259 27.3645 259 42C259 56.6355 247.136 68.5 232.5 68.5H62V15.5H232.5Z" fill="black"/>
<path d="M232.5 15.5C247.136 15.5 259 27.3645 259 42C259 56.6355 247.136 68.5 232.5 68.5H62V15.5H232.5Z" stroke="#B98304"/>
<path d="M103.475 48.916C103.475 51.3184 102.865 53.1582 101.646 54.4355C100.439 55.7129 98.6934 56.3516 96.4082 56.3516C94.1699 56.3516 92.2656 55.9121 90.6953 55.0332V50.3047C92.6172 51.5586 94.3809 52.1855 95.9863 52.1855C96.9004 52.1855 97.5859 51.9336 98.043 51.4297C98.5117 50.9258 98.7461 50.2402 98.7461 49.373C98.7461 48.5176 98.4707 47.7383 97.9199 47.0352C97.3691 46.3203 96.4609 45.5293 95.1953 44.6621C94.0938 43.9004 93.2559 43.1738 92.6816 42.4824C92.1191 41.7793 91.6797 40.9941 91.3633 40.127C91.0586 39.2598 90.9062 38.252 90.9062 37.1035C90.9062 34.9004 91.5156 33.1543 92.7344 31.8652C93.9648 30.5762 95.6113 29.9316 97.6738 29.9316C99.6426 29.9316 101.535 30.4824 103.352 31.584L101.77 35.416C101.207 35.0879 100.615 34.7949 99.9941 34.5371C99.3848 34.2793 98.7285 34.1504 98.0254 34.1504C97.252 34.1504 96.6543 34.4082 96.2324 34.9238C95.8223 35.4277 95.6172 36.1191 95.6172 36.998C95.6172 37.8652 95.8633 38.6211 96.3555 39.2656C96.8594 39.9102 97.7324 40.6426 98.9746 41.4629C100.65 42.5879 101.816 43.7363 102.473 44.9082C103.141 46.0801 103.475 47.416 103.475 48.916ZM121.721 30.3008V46.9297C121.721 49.9883 121.03 52.3262 119.647 53.9434C118.264 55.5488 116.266 56.3516 113.653 56.3516C111.098 56.3516 109.153 55.5547 107.817 53.9609C106.481 52.3555 105.813 49.9883 105.813 46.8594V30.3008H110.559V47.2109C110.559 50.4805 111.643 52.1152 113.811 52.1152C114.819 52.1152 115.598 51.6992 116.149 50.8672C116.7 50.0352 116.975 48.8516 116.975 47.3164V30.3008H121.721ZM125.449 30.3008H132.005C134.677 30.3008 136.623 30.8223 137.841 31.8652C139.06 32.8965 139.669 34.543 139.669 36.8047C139.669 38.293 139.347 39.541 138.703 40.5488C138.058 41.5449 137.179 42.1484 136.066 42.3594V42.5352C137.519 42.8984 138.568 43.5781 139.212 44.5742C139.857 45.5703 140.179 46.8945 140.179 48.5469C140.179 50.8789 139.552 52.707 138.298 54.0312C137.056 55.3438 135.351 56 133.183 56H125.449V30.3008ZM129.949 40.6367H132.146C133.154 40.6367 133.863 40.3672 134.273 39.8281C134.683 39.2891 134.888 38.4863 134.888 37.4199C134.888 36.3535 134.654 35.5918 134.185 35.1348C133.716 34.666 132.978 34.4316 131.97 34.4316H129.949V40.6367ZM129.949 44.627V51.8164H132.357C133.353 51.8164 134.091 51.5117 134.572 50.9023C135.064 50.293 135.31 49.3496 135.31 48.0723C135.31 45.7754 134.302 44.627 132.287 44.627H129.949ZM154.682 48.916C154.682 51.3184 154.072 53.1582 152.854 54.4355C151.647 55.7129 149.901 56.3516 147.615 56.3516C145.377 56.3516 143.473 55.9121 141.903 55.0332V50.3047C143.824 51.5586 145.588 52.1855 147.194 52.1855C148.108 52.1855 148.793 51.9336 149.25 51.4297C149.719 50.9258 149.953 50.2402 149.953 49.373C149.953 48.5176 149.678 47.7383 149.127 47.0352C148.576 46.3203 147.668 45.5293 146.403 44.6621C145.301 43.9004 144.463 43.1738 143.889 42.4824C143.326 41.7793 142.887 40.9941 142.57 40.127C142.266 39.2598 142.113 38.252 142.113 37.1035C142.113 34.9004 142.723 33.1543 143.942 31.8652C145.172 30.5762 146.819 29.9316 148.881 29.9316C150.85 29.9316 152.742 30.4824 154.559 31.584L152.977 35.416C152.414 35.0879 151.822 34.7949 151.201 34.5371C150.592 34.2793 149.936 34.1504 149.233 34.1504C148.459 34.1504 147.861 34.4082 147.44 34.9238C147.029 35.4277 146.824 36.1191 146.824 36.998C146.824 37.8652 147.07 38.6211 147.563 39.2656C148.067 39.9102 148.94 40.6426 150.182 41.4629C151.858 42.5879 153.024 43.7363 153.68 44.9082C154.348 46.0801 154.682 47.416 154.682 48.916ZM165.651 34.1152C164.28 34.1152 163.196 34.918 162.399 36.5234C161.614 38.1289 161.222 40.3613 161.222 43.2207C161.222 49.1738 162.774 52.1504 165.88 52.1504C167.239 52.1504 168.663 51.7168 170.151 50.8496V55.1035C168.897 55.9355 167.292 56.3516 165.335 56.3516C162.44 56.3516 160.214 55.2031 158.655 52.9062C157.108 50.5977 156.335 47.3574 156.335 43.1855C156.335 39.0137 157.132 35.7617 158.725 33.4297C160.331 31.0977 162.558 29.9316 165.405 29.9316C166.343 29.9316 167.239 30.0605 168.095 30.3184C168.962 30.5762 169.888 31.0273 170.872 31.6719L169.29 35.5566C168.763 35.1934 168.2 34.8652 167.602 34.5723C167.005 34.2676 166.354 34.1152 165.651 34.1152ZM177.851 45.998V56H173.07V30.3008H179.328C181.976 30.3008 183.927 30.9277 185.181 32.1816C186.447 33.4355 187.08 35.3516 187.08 37.9297C187.08 41.1758 185.984 43.4434 183.793 44.7324L188.732 56H183.617L179.556 45.998H177.851ZM177.851 41.8848H179.082C180.207 41.8848 181.015 41.5684 181.507 40.9355C182 40.291 182.246 39.3359 182.246 38.0703C182.246 36.7578 181.982 35.8262 181.455 35.2754C180.939 34.7129 180.136 34.4316 179.046 34.4316H177.851V41.8848ZM191.211 56V30.3008H195.711V56H191.211ZM200.423 30.3008H206.98C209.651 30.3008 211.597 30.8223 212.815 31.8652C214.034 32.8965 214.644 34.543 214.644 36.8047C214.644 38.293 214.321 39.541 213.677 40.5488C213.032 41.5449 212.153 42.1484 211.04 42.3594V42.5352C212.493 42.8984 213.542 43.5781 214.187 44.5742C214.831 45.5703 215.153 46.8945 215.153 48.5469C215.153 50.8789 214.526 52.707 213.272 54.0312C212.03 55.3438 210.325 56 208.157 56H200.423V30.3008ZM204.923 40.6367H207.12C208.128 40.6367 208.837 40.3672 209.247 39.8281C209.657 39.2891 209.862 38.4863 209.862 37.4199C209.862 36.3535 209.628 35.5918 209.159 35.1348C208.69 34.666 207.952 34.4316 206.944 34.4316H204.923V40.6367ZM204.923 44.627V51.8164H207.331C208.327 51.8164 209.065 51.5117 209.546 50.9023C210.038 50.293 210.284 49.3496 210.284 48.0723C210.284 45.7754 209.276 44.627 207.261 44.627H204.923ZM229.533 56H217.949V30.3008H229.533V34.4316H222.73V40.5488H229.041V44.6973H222.73V51.8164H229.533V56Z" fill="white"/>
<path d="M72.5 21.2891V62.71L36.5 83.4229L0.5 62.71V21.2891L36.5 0.576172L72.5 21.2891Z" fill="#B00021"/>
<path d="M72.5 21.2891V62.71L36.5 83.4229L0.5 62.71V21.2891L36.5 0.576172L72.5 21.2891Z" fill="url(#paint0_linear_269_243)"/>
<path d="M72.5 21.2891V62.71L36.5 83.4229L0.5 62.71V21.2891L36.5 0.576172L72.5 21.2891Z" stroke="#B98304"/>
<path d="M59.3652 20.1897C62.5069 21.8701 59.6592 23.9241 59.6592 23.9241C65.3539 24.2981 65.9424 21.9641 65.9424 21.9641C66.6286 21.0297 66.7285 20.5627 66.7285 20.5627C67.7107 21.1232 67.7109 22.2434 67.7109 22.2434C68.2985 25.6973 65.7451 26.3499 65.7451 26.3499C68.9855 27.6573 69.6729 30.0852 69.6729 30.0852C72.3128 35.6638 68.7208 47.1684 68.6924 47.259C66.8256 52.1148 68.2012 52.4875 68.2012 52.4875C69.8693 53.4196 70.3604 52.2073 70.3604 52.2073C70.2607 53.5137 69.5742 54.634 69.5742 54.634C67.3249 59.007 64.0994 56.7968 64.0771 56.7815C60.5665 59.4714 60.1555 62.2522 60.1504 62.2874C59.9547 64.419 62.1758 64.253 62.2109 64.2502C61.5234 66.7683 58.6768 66.5833 58.6768 66.5833C58.2872 67.6032 58.9626 69.5437 58.9717 69.5696C59.2797 70.0506 59.5985 70.3529 59.9062 70.5334L36.5 84.0002L29.541 79.9963C29.4413 79.7815 29.4219 79.6506 29.4219 79.6506C29.372 79.7152 29.3176 79.7761 29.2646 79.8372L25.1299 77.4583C24.8423 74.7397 23.5528 72.5919 23.5322 72.5579C22.8474 72.4848 21.3362 74.1513 20.6914 74.9045L0 63.0002V60.1389C0.16576 60.1944 0.26166 60.2347 0.263672 60.2356C0.162763 60.0796 0.0772619 59.9261 0 59.7786V56.8293C0.74868 55.746 2.1966 55.2978 2.22754 55.2883C1.12412 55.4128 0.32004 56.3516 0 56.7903V54.0266C1.46355 54.149 2.20456 55.2511 2.22852 55.2874C7.03815 54.4465 7.43066 58.6487 7.43066 58.6487C7.82167 61.3428 10.7446 62.3733 10.7695 62.3821C13.9084 63.6888 18.2245 62.3836 18.2295 62.3821C17.5422 61.1689 14.5 61.7297 14.5 61.7297C14.597 59.7807 17.0234 57.1838 17.0508 57.1545C12.0467 59.2087 9.88477 56.8743 9.88477 56.8743C8.51169 55.6613 9.10156 54.9143 9.10156 54.9143C10.0811 55.3802 11.2585 55.2884 11.2598 55.2883C13.4121 55.2883 13.517 53.3385 13.5176 53.3274C7.86189 53.8829 5.98525 51.7702 5.95996 51.7415C4.19844 50.4399 5.0677 49.23 5.07422 49.2209C5.95502 50.2405 7.70713 49.971 7.72656 49.968C9.67392 50.0605 9.78552 48.6813 9.78711 48.6604C1.75833 48.0083 3.29943 44.2923 3.30762 44.2727C4.96647 45.1075 7.3033 44.1916 7.33301 44.1799C7.62482 43.7169 5.98234 42.1476 5.95996 42.1262C2.35094 42.4966 2.03636 40.3817 2.03223 40.3528C1.14764 35.9653 5.46777 36.5247 5.46777 36.5247C2.71855 35.48 3.30558 32.6433 3.39551 32.2717C3.34157 32.3744 3.30947 32.4369 3.30762 32.4407C3.41626 31.6589 1.1606 31.847 0 31.9944V30.9963C1.85476 28.8028 5.00098 30.2717 5.00098 30.2717C4.69391 30.4045 4.37576 30.7488 4.09961 31.1252C6.08396 28.6631 8.80566 30.3645 8.80566 30.3645C8.36079 28.4008 8.85067 27.1521 9.58008 26.3625C9.99854 24.8615 6.9424 23.9085 6.91699 23.9006C9.9934 21.81 12.1217 25.0111 12.1436 25.0442C11.3204 25.0159 10.5732 25.4977 10.0977 25.8987C11.0606 25.1817 12.1445 25.0442 12.1445 25.0442C17.5421 24.95 16.0703 30.0852 16.0703 30.0852C17.4765 28.7109 18.7115 28.3125 19.6895 28.3303C19.0478 28.3049 18.623 28.4514 18.623 28.4514C19.7225 26.9877 17.5407 24.4834 17.5195 24.4592C22.2308 25.0219 21.9385 29.1516 21.9385 29.1516C21.607 28.9047 21.2772 28.7289 20.9629 28.6038C21.6643 28.9025 22.0596 29.3381 22.0596 29.3381C25.3883 33.157 21.6825 35.5806 21.665 35.592C20.0952 36.7109 17.6416 39.0461 17.6416 39.0461C16.2797 40.3395 16.7474 41.1762 16.7568 41.1926C17.7363 40.9123 19.501 42.2156 19.5068 42.22C20.8778 43.1488 28.0083 52.1586 28.0469 52.2073C29.9082 49.7844 42.4332 50.2446 42.4795 50.2463C43.362 50.2463 43.2646 50.0608 43.2646 50.0608C37.0788 47.8199 38.2568 44.552 38.2568 44.552L38.3799 44.1604C38.3011 44.2321 38.2588 44.2718 38.2578 44.2727C34.9288 48.4647 27.2014 42.2493 27.165 42.22C24.8082 40.3521 23.4336 42.7786 23.4336 42.7786C21.7651 38.3 26.5762 38.0188 26.5762 38.0188C26.6735 36.0589 22.6484 36.2454 22.6484 36.2454C22.6484 36.2454 27.1651 32.0446 30.6992 36.9915C30.7154 37.0362 32.9705 43.2446 36.3926 42.9661C36.3926 42.9661 38.4543 42.7782 39.3379 41.6584C39.3379 41.6584 46.7005 33.6314 51.6104 39.7922L50.9961 40.3743C52.8843 39.511 52.9837 36.3604 52.9844 36.3381C51.4936 36.9243 49.0359 36.3832 47.0312 35.7366L43.8047 36.8528L44.6152 34.9622C44.7628 35.0087 45.8002 35.3374 46.4707 35.55C45.4144 35.1852 44.5393 34.8174 44.0879 34.6194C44.1916 34.6968 44.2461 34.7512 44.2461 34.7512C43.7333 34.7512 42.2051 37.5842 42.1846 37.6223C41.5999 36.7155 41.6692 34.2868 41.6699 34.262C41.7708 34.2314 41.8692 34.2065 41.9648 34.1868C40.7052 34.2774 39.6663 34.9858 38.8818 35.7834C39.8797 34.8355 40.4912 34.6116 40.4912 34.6116C40.1976 35.5172 40.3426 39.2015 40.3438 39.2317C38.2355 38.5252 38.0607 37.173 38.0576 36.7629C37.4835 37.5481 37.1777 38.2063 37.1777 38.2063H36.2939C32.5776 35.9739 33.2459 29.0166 33.251 28.9641C35.4988 25.7126 41.5403 25.5128 41.5957 25.511C41.3045 24.9554 41.8786 24.5838 41.8887 24.5774C41.7926 21.5108 48.4054 22.1436 48.4678 22.1497C54.1421 22.7082 56.0137 22.1534 56.0264 22.1497C58.6606 21.6863 58.2899 19.5626 58.2852 19.5364L59.3652 20.1897ZM73 63.0002L71.2402 64.012C70.6564 63.6227 70.1641 63.6897 70.1641 63.6897C67.7303 63.5607 67.9025 64.8923 68.2461 65.7346L66.1104 66.9631C63.5052 65.1112 64.7637 61.0745 64.7637 61.0745C66.4322 56.7815 71.1455 58.0881 71.1455 58.0881C71.1455 54.3666 71.9243 51.2868 73 48.8079V63.0002ZM41.5215 41.636C40.4872 42.37 39.5841 43.111 38.9922 43.6204H39.9268C40.7752 43.8289 41.6127 43.902 42.4238 43.8801C42.3215 43.8737 42.2175 43.8653 42.1123 43.8528C42.1123 43.8528 41.4557 43.159 41.5215 41.636ZM48.0752 39.3254C46.4605 38.654 43.913 39.9809 41.8174 41.428C42.4278 41.9137 43.737 42.8577 45.2783 43.3625C45.2783 43.3625 45.1205 43.4388 44.8457 43.5354C45.3695 43.4028 45.8722 43.2408 46.3477 43.0588C46.2332 43.0962 46.1212 43.1282 46.0137 43.1516C46.0137 43.1516 44.5427 42.5221 44.3213 40.7024C44.3504 40.7142 46.7595 41.6863 48.2969 42.1028C48.2873 42.1089 47.8551 42.3781 47.3105 42.6497C47.7622 42.44 48.1809 42.2209 48.5596 42.0042C47.2704 40.9643 47.2647 39.7301 47.2646 39.7219C47.634 40.5621 50.2842 40.843 50.2842 40.843L49.0322 41.7209C49.8382 41.2248 50.411 40.7825 50.6689 40.5725C50.0242 39.8608 48.1002 39.3322 48.0752 39.3254ZM2.05566 38.1116C1.61494 39.023 2.03223 40.3518 2.03223 40.3518C1.60901 39.532 0.591645 39.7129 0 39.9026V38.9348C0.734829 37.9869 2.05566 38.1116 2.05566 38.1116Z" fill="white"/>
<path d="M40.2207 81.8584L39.002 82.5596C37.3464 82.6413 35.8958 82.9665 35.084 83.1855L34.2764 82.7207C34.8224 82.5408 37.367 81.7657 40.2207 81.8584ZM58.542 19.25C58.5959 19.25 58.6569 19.2633 58.7041 19.29H58.7109L59.7969 19.9473C60.8287 20.4966 61.3816 21.173 61.4355 21.9434C61.4828 22.6401 61.0918 23.2565 60.7275 23.6719C65.3011 23.7858 65.8945 21.943 65.8945 21.9229C65.9079 21.8829 65.9215 21.8429 65.9482 21.8096C66.5688 20.9654 66.6768 20.5293 66.6768 20.5293C66.6834 20.5227 66.6903 20.5164 66.6904 20.5098C66.7039 20.4763 66.7181 20.4496 66.7383 20.4229C66.745 20.4095 66.7511 20.4021 66.7578 20.3887C66.7848 20.3552 66.8258 20.3287 66.8662 20.3086C66.9134 20.2885 66.9606 20.2881 67.0078 20.2881H67.0215C67.0619 20.2881 67.1022 20.3022 67.1426 20.3223H67.1562C68.2961 20.9722 68.3096 22.2384 68.3096 22.292C68.7345 24.744 67.6084 25.8968 66.8057 26.3926C69.5913 27.7862 70.2386 29.9435 70.2656 30.0439C72.9301 35.6452 69.4297 46.9345 69.2812 47.4102C67.668 51.592 68.5587 52.2114 68.5791 52.2207C69.1323 52.5222 69.5648 52.616 69.8818 52.5088C70.1912 52.4084 70.3198 52.1414 70.3203 52.127C70.3878 51.973 70.5491 51.8925 70.7109 51.9326C70.8728 51.9728 70.9813 52.1205 70.9678 52.2812C70.8599 53.6469 70.1588 54.805 70.1309 54.8535C69.3417 56.3943 68.3166 57.3321 67.1094 57.6338C65.8749 57.942 64.8017 57.4736 64.3564 57.2324C61.1457 59.765 60.7275 62.3511 60.7275 62.3779C60.6804 62.8735 60.7879 63.269 61.0508 63.5303C61.5365 64.0194 62.4211 63.959 62.4346 63.959C62.5289 63.9524 62.6504 63.9931 62.7178 64.0801C62.7849 64.167 62.812 64.2739 62.7852 64.3809C62.1645 66.6455 59.9514 66.9341 59.1689 66.9609C59.014 67.7315 59.3451 68.9711 59.5137 69.4668C59.7658 69.8552 60.0355 70.1308 60.3193 70.2949L59.6855 70.6592C59.4136 70.4415 59.1592 70.1513 58.9268 69.7881C58.9133 69.768 58.8993 69.7475 58.8926 69.7207C58.8642 69.643 58.2989 68.0172 58.501 66.873C55.7829 66.2366 55.0946 65.332 54.9395 65.0439C51.9045 61.848 54.9464 55.9863 56.0527 54.1035C55.7021 54.137 55.3852 54.1504 55.1289 54.1504C54.7107 54.1504 54.4539 54.1172 54.4404 54.1172C54.292 54.0971 54.1774 53.9892 54.1504 53.8418C54.1303 53.7014 54.1975 53.5544 54.332 53.4873C55.499 52.8977 55.6278 51.611 55.5469 50.6797C54.7307 52.4417 53.6851 53.4805 52.417 53.7754C50.3258 54.2712 48.4706 52.5219 48.3896 52.4482C48.2952 52.3611 48.2613 52.2202 48.3018 52.0996C48.3423 51.9793 48.457 51.8924 48.585 51.8789C50.5859 51.6782 50.5957 50.4082 50.5957 50.3516C50.5957 50.3315 50.6025 50.3041 50.6025 50.2773C50.7441 49.6276 50.6358 49.0783 50.2783 48.6094C49.4284 47.4838 47.4314 47.1486 46.7568 47.0615C44.983 48.5688 43.8967 50.0625 43.748 50.2705C43.7414 50.2905 43.7419 50.3176 43.7354 50.3311C43.6004 50.5455 43.303 50.6328 42.6621 50.6328L42.6689 50.6123C39.3296 50.4917 30.5873 50.5596 28.6514 52.2412L35.04 59.0615C35.4517 58.9409 36.5708 58.7065 37.2588 59.3828C37.9199 60.0327 37.927 61.2321 37.293 63.041C37.2255 63.2085 35.7681 66.6388 33.4004 69.5801C33.3532 69.6337 29.906 73.567 32.0039 76.3877L32.0381 76.4482C32.0744 76.5341 32.8713 78.2308 34.8848 78.7324C32.6254 73.0653 39.6716 65.5431 39.9775 65.2256C43.693 60.658 40.2974 57.5094 40.1465 57.373L40.5918 56.8701C44.4571 60.0727 46.3046 63.4032 46.082 66.7666C45.9268 69.165 44.7467 71.1681 43.4854 72.6621C43.3744 73.3397 43.1054 76.3163 46.2637 78.3818L45.5977 78.7646C43.2043 77.0434 42.7769 74.7827 42.7568 73.4727C41.4751 74.7926 40.2808 75.5639 40.1729 75.6309C36.1805 77.6568 35.828 79.2215 35.8223 79.248L35.7686 79.5566L35.458 79.5303C32.9553 79.2757 31.7949 77.4594 31.498 76.9033C31.3564 77.7006 30.9251 78.6789 29.9336 79.791C29.984 79.9286 30.0971 80.1671 30.3428 80.457L29.0723 79.7266C29.1391 79.6525 29.2041 79.5758 29.2656 79.4961C29.272 79.4899 29.289 79.4785 29.292 79.4766C31.7145 76.8566 30.6329 75.1299 30.6143 75.1016C29.2719 73.4199 28.7525 71.7847 29.083 70.2705C29.1909 69.7747 29.3869 69.3321 29.6162 68.9502C27.5136 67.3424 24.4609 68.3655 24.4355 68.374L23.9092 68.5615L23.9902 68.0127C24.4084 65.2193 22.8846 63.9929 22.4795 63.7246C22.3784 63.7447 22.2838 63.7513 22.1895 63.7646C22.0815 64.6892 21.7575 68.8034 23.9229 72.4482C24.0186 72.6006 25.3739 74.8806 25.6045 77.7314L24.9443 77.3516C24.6853 75.2336 23.8159 73.486 23.5117 72.9307C23.0265 73.0993 21.9853 74.0967 21.0986 75.1387L20.4727 74.7783C21.0988 74.0402 22.2428 72.7852 23.1064 72.4014C21.1232 68.7767 21.3523 64.9368 21.4805 63.7979C20.6307 63.7844 20.0707 63.564 20.0234 63.5439C19.0926 63.0482 18.4856 62.8464 18.2832 62.7861C17.6085 62.9738 13.6755 63.9923 10.667 62.7461C10.5446 62.7098 7.52997 61.6233 7.1123 58.7529C7.10493 58.7133 6.94122 57.1699 5.72949 56.2539C4.99422 55.6979 4.00927 55.4772 2.80859 55.6045V55.6172L2.28223 55.6777C2.26128 55.6889 0.492518 56.2528 0.00878906 57.5674C0.00562376 57.5761 0.00304021 57.585 0 57.5938V56.3477C0.345789 55.9349 0.912048 55.3986 1.64844 55.1416C1.36514 54.8804 0.899624 54.5592 0.272461 54.4453C0.182704 54.429 0.0917337 54.4175 0 54.4102V53.6943C0.150806 53.7025 0.299912 53.7207 0.447266 53.748C1.53316 53.949 2.20168 54.6188 2.46484 54.9404C4.02288 54.7127 5.27745 54.961 6.22852 55.6777C7.67885 56.7765 7.86142 58.5523 7.86816 58.626C8.22551 61.0762 10.9601 62.068 10.9912 62.0762C13.3453 63.0543 16.4279 62.5116 17.6895 62.2168C16.8936 61.8017 15.2891 61.9555 14.6816 62.0693C14.5805 62.0827 14.4784 62.0563 14.3975 61.9893C14.3235 61.9224 14.2833 61.8219 14.2832 61.7217C14.3507 60.4085 15.3626 58.867 16.1182 57.8955C11.7807 59.2221 9.83086 57.1983 9.74316 57.1045C8.17179 55.7244 8.9067 54.7531 8.94043 54.7129C9.04152 54.5924 9.21 54.5524 9.35156 54.6191C10.2396 55.0401 11.3295 54.9614 11.3486 54.9609C12.6438 54.9609 13.082 54.1971 13.2305 53.708C8.04571 54.103 6.08887 52.276 5.83105 52C3.84781 50.5193 4.88006 49.0446 4.89355 49.0312C4.95427 48.9444 5.04837 48.8906 5.14941 48.8906C5.25059 48.8839 5.35149 48.9245 5.41895 49.0049C6.17276 49.8806 7.7529 49.6427 7.77344 49.6416H7.84082C8.88602 49.6952 9.29111 49.2797 9.45312 48.9648C6.23565 48.65 4.17144 47.7921 3.32812 46.4121C2.62841 45.2627 3.05579 44.1996 3.07812 44.1475C3.1186 44.0604 3.18672 43.9935 3.27441 43.96C3.36203 43.9265 3.46305 43.9325 3.54395 43.9727C4.8054 44.6092 6.56608 44.1202 7.12598 43.9326C7.02469 43.6846 6.51843 43.0478 5.93164 42.4717C2.54561 42.753 1.89808 40.8843 1.79688 40.4756C1.43666 39.8367 0.448503 40.1107 0 40.2764V38.5C0.582288 37.9239 1.38556 37.756 1.95898 37.7686C2.07364 37.5409 2.21531 37.333 2.39062 37.1455C2.93695 36.5628 3.69219 36.3145 4.32617 36.2207C2.81581 35.0149 2.97723 33.1063 3.09863 32.4092L3.04492 32.3955C2.88845 32.1504 1.50786 32.1358 0 32.3398V31.707C0.5086 31.6351 1.16859 31.5713 1.7832 31.5713L1.79004 31.5781C2.40377 31.5781 2.97723 31.6447 3.32129 31.8389C3.45612 31.5911 3.60472 31.357 3.75977 31.1494C3.93514 30.8948 4.13768 30.6335 4.35352 30.4258C3.69252 30.2248 2.55924 30.0032 1.52051 30.3916C0.896078 30.6266 0.387624 31.0536 0 31.6641V30.5703C0.37489 30.1882 0.813046 29.9023 1.31152 29.7158C2.89671 29.1196 4.58961 29.7092 5.08203 29.9102C5.32488 29.7762 5.57481 29.6684 5.83789 29.5947C6.87659 29.3001 7.84804 29.5478 8.45508 29.7822C8.27973 28.4959 8.50241 27.4042 9.11621 26.5332C9.19038 26.4261 9.27076 26.3184 9.3584 26.2246C9.38538 26.0638 9.37871 25.9028 9.29102 25.7354C8.89955 24.9851 7.43625 24.3893 6.90332 24.2285L6.23535 24.0205L6.81543 23.6318C7.78681 22.9752 8.77187 22.7344 9.75 22.9287C11.1864 23.21 12.1306 24.328 12.4277 24.7236C14.0669 24.7303 15.241 25.1995 15.9561 26.124C16.7116 27.1022 16.7655 28.362 16.6846 29.2129C17.2849 28.7372 17.8988 28.4092 18.5059 28.2148C19.2142 27.1763 17.9456 25.3269 17.3857 24.6904L16.8057 24.0342L17.6758 24.1348C22.2696 24.6775 22.412 28.4561 22.4053 29.0859C22.4182 29.0988 22.4369 29.1176 22.4385 29.1191C23.5717 30.4189 24.0572 31.7051 23.8818 32.958C23.6193 34.7898 22.0474 35.8278 21.9736 35.8789C20.4506 36.9632 18.018 39.2714 17.9863 39.2959C17.2173 40.0262 17.1027 40.5564 17.1162 40.8311C18.2157 40.8177 19.6525 41.8355 19.8281 41.9629C21.0963 42.8138 26.9449 50.1106 28.2266 51.7119C30.5807 49.7355 39.633 49.8353 42.1562 49.9023C38.4935 48.2542 37.9877 46.2305 38.0146 45.1719C37.421 45.6476 36.7056 45.9423 35.8691 46.0361C35.6736 46.0562 35.4777 46.0703 35.2754 46.0703C31.6058 46.07 27.2953 42.6463 27.1064 42.4922C26.4657 41.9831 25.8517 41.7825 25.2852 41.8896C24.4068 42.0551 23.883 42.9307 23.8691 42.9541L23.5117 43.5781L23.2617 42.9072C22.729 41.4871 22.7631 40.3017 23.3633 39.3906C24.1525 38.1913 25.6772 37.8359 26.3652 37.7354C26.3248 37.5947 26.2435 37.4606 26.1289 37.3467C25.4206 36.6365 23.4841 36.5699 22.8027 36.5967L21.8857 36.6367L22.5537 36.0137C22.6416 35.9331 24.7255 34.0307 27.2549 34.2852C28.7321 34.4326 30.041 35.2831 31.1338 36.8105L31.1748 36.8906C31.2018 36.9509 33.3803 42.9277 36.5439 42.6465C36.5574 42.6465 38.4802 42.4584 39.2627 41.4668C39.4481 41.2623 43.4131 37.005 47.5869 37.1523C49.0844 37.206 50.4137 37.8225 51.5537 38.9883C51.3851 38.1709 50.8715 37.2597 50.6084 36.8711C49.4889 36.7438 48.3019 36.4423 47.2363 36.1074L43.3906 37.4336L44.3623 35.1689C44.052 35.4637 43.2626 36.6971 42.6689 37.7959L42.3994 38.2979L42.0889 37.8154C41.5898 37.0381 41.5156 35.4035 41.5156 34.6465C41.3269 34.6933 41.145 34.7604 40.9697 34.834C40.7808 35.6648 40.8277 38.258 40.8682 39.2295L40.8887 39.7188L40.4229 39.5645C38.932 39.0687 38.318 38.2643 38.0684 37.6211C37.8255 38.0231 37.6843 38.3183 37.6641 38.3652C37.6101 38.4858 37.4885 38.5595 37.3604 38.5596H36.4766C36.4159 38.5596 36.3547 38.5462 36.3008 38.5127C32.4155 36.1877 33.056 29.246 33.083 28.9512C33.0898 28.8977 33.1109 28.8446 33.1445 28.7979C35.1615 25.8901 39.9304 25.3269 41.374 25.2197C41.374 24.8847 41.5631 24.6097 41.752 24.4355C41.779 23.8729 42.0078 23.3835 42.4326 22.9883C44.1317 21.4145 48.5338 21.8223 48.7266 21.8428C54.2505 22.3841 56.1508 21.8592 56.1807 21.8564C58.4607 21.4544 58.2447 19.8126 58.2109 19.625V19.5293C58.2134 19.5067 58.2179 19.4849 58.2246 19.4648C58.2314 19.4514 58.2314 19.4441 58.2314 19.4307C58.2517 19.3839 58.2789 19.344 58.3193 19.3105C58.3261 19.3038 58.3398 19.3037 58.3398 19.3037C58.3462 19.3035 58.3467 19.2969 58.3467 19.2969C58.3534 19.2905 58.3663 19.29 58.373 19.29C58.4134 19.27 58.4539 19.2501 58.501 19.25H58.542ZM34.8984 78.7461C35.013 78.7729 35.1346 78.7993 35.2559 78.8193C35.2895 78.7458 35.33 78.6589 35.3838 78.5586V78.5518L34.8984 78.7461ZM42.0146 59.1084C42.588 60.6829 42.6824 62.9807 40.4834 65.6807H40.4902C40.4025 65.7745 33.4953 73.1516 35.4785 78.4111C35.9372 77.6674 37.0704 76.448 39.8496 75.041C39.8774 75.0204 45.0844 71.6901 45.4082 66.7324C45.5767 64.1732 44.4362 61.6208 42.0146 59.1084ZM49.4414 60.3945C49.5089 60.2203 49.6986 60.1331 49.874 60.1934C50.013 60.2485 53.2526 61.4708 52.9492 67.4365C52.9414 67.5046 52.4995 70.6213 54.1904 72.4414C54.4855 72.7601 54.8317 73.0207 55.2256 73.2256L54.5273 73.6279C54.2157 73.4264 53.9314 73.1902 53.6777 72.917C53.1316 72.3343 52.788 71.6441 52.5654 70.9609C52.0941 72.8467 51.1655 74.3451 51.1084 74.4307C50.8203 74.9924 50.5846 75.5203 50.3887 76.0088L49.4824 76.5293C49.7326 75.8064 50.074 74.9855 50.541 74.0762C50.5747 74.0293 52.1807 71.4428 52.1807 68.9102V68.5352C52.1807 68.4883 52.1946 68.4414 52.2148 68.3945C52.2216 67.8116 52.2755 67.416 52.2822 67.3691C52.5586 61.9652 49.7686 60.8712 49.6445 60.8232C49.4692 60.7562 49.3807 60.5687 49.4414 60.3945ZM36.7734 59.8857C36.4767 59.591 35.9643 59.5911 35.5596 59.6514L35.8086 59.9189C35.8356 59.9524 36.6788 60.8232 36.6318 62.1562C36.5914 63.2215 36.0115 64.2542 34.8984 65.2324C34.8374 65.2931 33.1783 66.7936 32.1328 67.4971C32.0788 67.5239 30.1693 68.5219 29.7578 70.418H29.751C29.5082 71.5167 29.8187 72.7094 30.6416 73.9756C30.8034 71.5185 32.7499 69.2953 32.8672 69.165C35.1584 66.3205 36.6359 62.8608 36.6523 62.8203C37.3133 60.9514 37.0837 60.1874 36.7734 59.8857ZM12.3232 70.0898L11.9668 69.8848L12.6572 69.5332L12.3232 70.0898ZM12.2324 25.4277C12.2183 25.4363 11.1872 25.5861 10.3096 26.2715C10.0601 26.4925 9.90527 26.6807 9.90527 26.6807L9.88477 26.667C9.79714 26.7607 9.71673 26.8548 9.64258 26.9619C9.04895 27.8061 8.90054 28.9319 9.2041 30.292C9.38049 30.5749 10.473 32.2347 12.1719 32.2949L12.6572 32.3086L12.4756 32.75C12.4688 32.7701 11.7067 34.6336 11.4639 36.0674C11.4369 36.4958 11.4031 36.8305 11.3896 36.998L10.7148 36.9854C10.7014 36.704 10.7283 36.3748 10.7822 36.0264C10.8631 34.6931 10.8558 33.0722 10.5928 32.543C9.49339 31.96 8.81884 30.9549 8.63672 30.6602C8.34636 30.5059 7.19268 29.9435 5.99219 30.2852C5.95188 30.2985 5.9114 30.312 5.87109 30.332H5.87793L5.34473 30.5596C5.03452 30.7405 4.74446 30.9888 4.48145 31.2969C4.20495 31.6586 3.94176 32.101 3.75293 32.4561C3.68513 32.7726 3.16036 35.3106 5.64844 36.2549C5.71589 36.275 6.12773 36.4284 6.69434 36.75V36.7373C6.73774 36.7589 7.59999 37.2054 8.52246 36.7373L8.82617 36.583L8.97461 36.8848C9.0317 36.9983 10.263 39.5007 10.4854 42.0498H10.4512C10.4579 42.1167 10.4786 42.1772 10.4854 42.2441L9.81738 42.3252C9.34518 38.4794 5.7565 37.0181 5.43945 36.8975C5.18962 36.8773 3.6725 36.771 2.84961 37.6553C2.30995 38.2315 2.16145 39.129 2.4043 40.335C2.4249 40.4241 2.74326 42.1506 5.9248 41.8428L6.93066 41.3398L7.0918 41.4541C7.26719 41.5747 8.81878 42.6666 9.14258 43.6582L9.15625 43.7383C9.17649 44.0599 8.89307 44.4552 7.46973 44.5557C7.13876 44.6831 5.20272 45.3526 3.58398 44.7832C3.53677 45.0914 3.55026 45.5946 3.87402 46.1172C4.40018 46.9681 5.87116 48.0534 9.87793 48.375C10.0599 48.3884 10.2017 48.5488 10.1885 48.7295C10.1885 48.7496 10.0266 50.4385 7.80078 50.3516C7.55797 50.3851 6.20884 50.5257 5.25098 49.8359C5.18366 50.2112 5.2776 50.8278 6.21484 51.5176C6.23508 51.531 6.25604 51.5444 6.26953 51.5645C6.30492 51.6007 8.16073 53.5652 13.5684 53.0381C13.6627 53.0315 13.7569 53.0649 13.8311 53.1318C13.8985 53.1988 13.9326 53.2931 13.9326 53.3936C13.892 54.1776 13.2975 55.6709 11.3281 55.6709C11.2981 55.6717 10.325 55.7434 9.37207 55.4102C9.37218 55.6514 9.50053 56.0806 10.1748 56.6699C10.2843 56.7787 12.3024 58.8194 17.0156 56.8906C17.1638 56.8306 17.3322 56.8837 17.4199 57.0107L17.4268 57.0244C17.5145 57.1584 17.5005 57.3324 17.3926 57.4463C17.3722 57.4666 15.6663 59.3024 15.0996 60.9639C16.1655 60.2135 18.2632 59.028 20.6914 59.249C22.7487 59.4366 24.5836 60.5955 26.1553 62.6855C27.6594 65.104 29.3935 67.6835 30.0547 68.3672C30.8237 67.4361 31.7342 66.9536 31.7949 66.9268C32.7663 66.2701 34.4465 64.7497 34.46 64.7363C35.4312 63.8855 35.9369 63.0144 35.9707 62.1436C36.0179 61.0917 35.3437 60.3876 35.3369 60.3809L27.9434 52.4824C27.9366 52.4757 27.9229 52.4686 27.9229 52.4619C25.9328 49.9561 20.5292 43.2829 19.4297 42.5459C18.782 42.0702 17.5476 41.3931 16.9541 41.5605C16.8059 41.6006 16.6513 41.5409 16.5703 41.4072C16.5433 41.3603 15.9564 40.3217 17.5146 38.8477C17.6168 38.753 20.0107 36.4819 21.5889 35.3633C21.6205 35.3401 22.9993 34.4224 23.208 32.8975C23.3562 31.8457 22.924 30.7404 21.9258 29.6016C21.9196 29.5952 21.6174 29.2842 21.1035 29.0322C21.0158 28.992 20.9275 28.9515 20.8398 28.918C20.8063 28.9046 20.7728 28.8913 20.7393 28.8779C20.4357 28.7774 20.1519 28.7369 19.9023 28.7168C19.8754 28.7168 19.8483 28.71 19.8213 28.71C18.7151 28.6564 17.5752 29.233 16.415 30.3584C16.3071 30.479 15.2744 31.786 16.293 33.6553L17.3057 35.1689L17.1367 35.3633C16.3542 36.2544 14.3167 38.8274 14.2627 39.9932L14.2021 41.2256L13.6289 40.1338C13.541 39.9659 11.5039 35.9661 15.3555 30.8945H15.3691C15.5377 30.419 15.7601 30.1039 15.8613 29.9766C15.9423 29.6281 16.3407 27.7791 15.3965 26.5664C14.8838 25.9031 14.0265 25.521 12.8662 25.4473L12.2324 25.4277ZM25.1709 62.5186C24.5233 63.001 23.8956 63.3223 23.3154 63.5166H23.3223C23.9698 64.1263 24.9145 65.3994 24.7393 67.5967C25.5286 67.4024 27.1205 67.1485 28.665 67.6777C27.5656 66.1703 26.1626 63.9392 25.6094 63.0547C25.4677 62.8671 25.3193 62.6927 25.1709 62.5186ZM73 50.5449C72.2787 52.6259 71.7917 55.0637 71.7637 57.875C72.257 58.0719 72.6692 58.3433 73 58.6143V59.5361C72.6587 59.1781 72.1095 58.713 71.3652 58.4512H71.332C71.2646 58.4311 70.664 58.2772 69.8545 58.2705C69.7668 58.2772 69.6854 58.2845 69.5977 58.2979C69.544 58.3044 69.4903 58.2975 69.4434 58.2842C68.0402 58.3579 66.2253 58.9412 65.3281 61.2393C65.3188 61.277 64.5121 63.9829 65.6924 65.8281C65.9151 66.1749 66.198 66.4713 66.5381 66.7168L65.8906 67.0898C65.5889 66.8349 65.3288 66.539 65.1123 66.2031C63.7571 64.0867 64.6464 61.1608 64.6875 61.0381C65.7533 58.3112 67.9728 57.7011 69.5918 57.6475C70.138 57.5738 70.637 57.6007 71.082 57.7012C71.1436 54.1188 71.9318 51.1299 73 48.7031V50.5449ZM61.5908 47.3965C61.6582 49.0506 61.2745 50.4975 61.2539 50.5791C60.3365 52.7968 58.4675 53.6677 56.916 53.9893C56.3899 54.8335 52.383 61.48 55.459 64.6357C55.4926 64.6691 55.5197 64.7092 55.5332 64.7559C55.5332 64.7559 55.9987 65.6807 58.96 66.3105C59.223 66.3172 61.2405 66.3441 61.9893 64.6289C61.5778 64.5887 60.9972 64.4483 60.5723 64.0195C60.1608 63.6108 59.9853 63.0343 60.0527 62.3174L60.0459 62.3105C60.0666 62.1801 60.4939 59.4484 63.8984 56.75C62.2728 53.7352 62.4682 50.3049 62.5762 49.293C62.2524 48.5493 61.9214 47.9258 61.5908 47.3965ZM0 58.9844C0.101642 59.3307 0.272301 59.6946 0.514648 60.0732C0.690014 60.2139 1.35151 60.7562 2.14062 61.4395C2.72744 61.56 3.79991 61.6539 4.25195 61.3994L4.6709 61.1582L4.75098 61.6338C4.75772 61.6539 5.20343 64.0859 7.38867 65.3857C7.43589 65.3924 7.47036 65.4132 7.51758 65.4199L7.37598 66.0762C5.28212 65.6348 4.26293 64.3259 4.21875 64.2676C2.9573 62.9477 0.42695 60.8633 0.0761719 60.5752C0.0576979 60.568 0.0320171 60.5586 0 60.5469V58.9844ZM70.4551 63.3965C70.4758 63.3927 71.0336 63.3307 71.6846 63.7559L70.9639 64.1709C70.6903 64.0719 70.4949 64.0857 70.4688 64.0859C69.7739 64.0591 68.9771 64.1133 68.7275 64.5488C68.5885 64.7917 68.6307 65.1332 68.7334 65.4541L68.1523 65.7881C67.9734 65.305 67.8664 64.6982 68.1543 64.1934C68.4916 63.6038 69.2679 63.3362 70.4551 63.3965ZM4.21191 62.1436C3.85439 62.2307 3.4423 62.2437 3.07129 62.2236V62.2305C3.69176 62.7865 4.30606 63.3557 4.77148 63.8447C4.78498 63.8581 4.96749 64.0868 5.31152 64.3682C4.66404 63.504 4.34687 62.6327 4.21191 62.1436ZM20.6377 59.9053C18.6279 59.7183 16.8188 60.6223 15.7715 61.3115C16.7345 61.2727 17.9616 61.3957 18.5127 62.1299C18.7555 62.2036 19.3967 62.4109 20.3613 62.9268C20.4232 62.954 22.4191 63.7236 24.7119 62.0156C23.491 60.7629 22.1216 60.046 20.6377 59.9053ZM58.6904 20.8379C58.623 21.0053 58.5422 21.1795 58.4209 21.3535C57.9892 21.9765 57.2739 22.3793 56.3027 22.5469C56.2623 22.5603 54.3393 23.1096 48.626 22.5469C48.5788 22.5402 44.336 22.1445 42.8584 23.5176L42.8779 23.5049C42.5544 23.8063 42.4131 24.1612 42.4131 24.5898C42.4941 24.8245 43.4926 26.935 52.1602 26.7207C53.0236 26.7006 60.3828 26.6133 62.0898 28.9111C62.7913 28.5628 63.6685 28.4559 64.7207 28.5898C64.8421 28.6099 67.2644 29.1129 68.1953 31.21C68.91 32.8112 68.5255 34.8684 67.082 37.3203C67.9655 38.4526 68.2693 40.1009 67.9658 42.2246C67.9455 42.3651 67.8308 42.479 67.6895 42.5059C67.541 42.5327 67.3985 42.4652 67.3311 42.3379C67.3298 42.3355 67.3236 42.3227 67.3115 42.3047C66.6032 41.6883 65.7059 41.7087 65.1797 41.7891C65.3685 42.1039 65.5307 42.4593 65.6318 42.8545C66.1105 44.6634 65.3143 46.7939 63.2705 49.1855C63.1963 49.8154 62.859 53.5407 64.5859 56.6025C64.8355 56.7499 65.8276 57.2726 66.9541 56.9912C67.9658 56.7365 68.8357 55.9123 69.5439 54.5391C69.5574 54.519 69.9082 53.936 70.1309 53.1455H70.1172C69.6046 53.3195 69.0044 53.2188 68.3232 52.8438C68.2153 52.7969 68.0125 52.6764 67.8506 52.3682C67.3919 51.477 67.6625 49.7344 68.6406 47.1885C68.6791 47.0577 72.1976 35.6897 69.6318 30.2783C69.6049 30.2046 68.9167 27.9605 65.9219 26.7344C63.1306 26.6809 58.9242 26.1273 58.8594 26.124C58.684 26.1039 58.5616 25.9496 58.5684 25.7754C58.5753 25.6014 58.7242 25.4609 58.8994 25.4609C63.8304 25.3939 65.6859 24.148 66.374 23.1162C66.7045 22.6204 66.8057 22.1244 66.8125 21.709C66.7181 21.8496 66.6165 22.0035 66.4951 22.1709C66.34 22.5997 65.3011 24.6504 59.9248 24.3154C59.2098 24.5365 57.8536 24.6035 56.5449 24.6035C54.926 24.6035 53.3813 24.5096 53.2666 24.5029C53.0914 24.4962 52.9562 24.3556 52.9492 24.1816C52.9425 24.0076 53.0709 23.8601 53.2461 23.8398C57.1249 23.3574 58.3058 22.332 58.6094 21.5615C58.7106 21.3136 58.7174 21.0657 58.6904 20.8379ZM58.5352 44.5957C56.5789 43.785 54.7373 43.6581 53.0576 43.9395C54.2111 44.7167 56.1744 46.4923 55.999 49.4805H56.0059C56.3161 50.4922 56.4906 52.3478 55.4316 53.5068C56.8481 53.4733 59.5127 53.0313 60.6191 50.3652C60.6191 50.3652 61.1792 48.2076 60.7881 46.2646C59.5892 44.8264 58.6258 44.6169 58.6094 44.6162C58.5824 44.6095 58.5554 44.6024 58.5352 44.5957ZM52.1064 44.1406C50.3189 44.6163 48.7542 45.5277 47.4658 46.5059C48.4507 46.6935 50.009 47.1487 50.8184 48.2139H50.8252C51.2906 48.8302 51.445 49.5608 51.2764 50.3916C51.2629 50.6664 51.108 51.9527 49.4219 52.415C50.056 52.8438 51.1421 53.3999 52.2686 53.1387C53.5231 52.8438 54.5553 51.5976 55.3311 49.4404C55.5267 46.0705 52.7407 44.4623 52.1064 44.1406ZM38.8447 44.3955L38.75 44.7031V44.6963C38.7028 44.8303 37.8191 47.6242 43.3301 49.7012C43.4178 49.5873 43.5462 49.4197 43.708 49.2188C40.3423 47.3094 39.3095 45.2196 39.0059 44.248C38.9453 44.3015 38.8986 44.3487 38.8447 44.3955ZM41.5498 25.8828C40.5514 25.9431 36.0113 26.3789 33.9336 28.8311C34.6621 29.1058 35.6802 29.5683 35.8623 30.0908L35.8828 30.1572V30.2314C35.7479 31.873 35.7147 35.7861 36.7266 37.3203C36.5714 36.4361 36.605 35.5515 36.6455 35.0557L36.6045 35.0684C36.0925 33.4221 36.2936 32.2503 36.3008 32.2012C36.8337 30.5195 37.7447 29.4942 39.0264 29.1123C42.217 28.1542 46.514 31.5713 46.6963 31.7188C48.5002 33.245 49.5763 33.8183 49.5967 33.8291L49.4414 34.124L49.5967 34.4258C49.5033 34.4755 47.379 35.512 43.4316 31.9795C43.182 31.8521 41.4208 30.9887 39.8086 31.6318C38.6958 32.0674 37.8661 33.1325 37.3535 34.7871C37.3603 34.7871 37.1781 36.121 37.4277 37.3672C37.5492 37.1662 37.6977 36.9375 37.873 36.6963V36.6299L37.8867 36.5293L37.9541 36.4492C38.4196 35.9199 38.8241 35.531 39.1816 35.2295C39.2558 35.1625 39.3302 35.0955 39.4111 35.0352C39.4381 35.0151 39.4652 34.9947 39.4922 34.9746C39.6269 34.8675 39.7687 34.7675 39.9102 34.6738C40.0113 34.6069 40.1056 34.5459 40.1865 34.499C40.2809 34.4522 40.3686 34.4052 40.4629 34.3584H40.4766C40.9757 34.1105 41.5295 33.9367 42.1299 33.8965C43.263 33.6889 44.0723 34.1041 44.4365 34.3721C44.9087 34.5798 45.7726 34.935 46.8047 35.29L48.0586 35.6855C49.8529 36.2014 51.83 36.5498 53.0645 36.0674C53.1724 36.0272 53.2874 36.0404 53.3818 36.1074C53.4693 36.1678 53.5234 36.275 53.5234 36.3887C53.5234 36.4089 53.5165 36.4824 53.5098 36.6025C53.3816 38.8403 52.6053 39.7523 52.2275 40.0605C51.9983 40.3082 51.7221 40.5161 51.4053 40.6768L50.8857 41.1729L50.8184 41.085C50.4878 41.3396 49.9746 41.7084 49.3135 42.1104L48.7744 42.4922L48.7266 42.4521C48.2882 42.7 47.8093 42.9344 47.29 43.1621C47.1754 43.2157 47.0541 43.2627 46.9395 43.3096C46.3391 43.5508 45.6978 43.772 45.0098 43.9395C44.5308 44.1002 43.8156 44.2744 42.959 44.2744C42.858 44.2744 42.7503 44.254 42.6426 44.2539C41.8061 44.274 40.9354 44.2144 40.0518 44H39.6338C39.8835 44.8109 40.828 46.8473 44.1396 48.6963C44.6523 48.1134 45.3544 47.3765 46.2246 46.6328C46.2584 46.4855 46.3793 46.3712 46.541 46.3711C47.9778 45.1919 49.8197 44.0335 51.958 43.4707C52.012 43.4439 52.0731 43.4307 52.1338 43.4307C53.5908 43.0689 55.1829 42.9881 56.876 43.3633C57.2137 43.0883 58.9066 41.809 60.5928 42.2109C61.618 42.4589 62.4136 43.2697 62.96 44.6162C63.0004 44.7033 63.3452 45.568 63.2373 48.1475C64.7686 46.1844 65.3621 44.462 64.9844 43.0215C64.4798 41.0971 62.3714 40.3059 62.3398 40.2949C62.2252 40.2547 62.1443 40.1538 62.124 40.0332C62.1039 39.9127 62.1576 39.7924 62.252 39.7188C63.0007 39.1426 63.797 38.9342 64.6133 39.1084C65.8342 39.3631 66.8191 40.4286 67.3857 41.1924C67.4734 39.705 67.1896 38.5459 66.542 37.7285C65.7636 36.749 64.7118 36.6311 64.6875 36.6299C64.5054 36.6165 64.3636 36.4485 64.3838 36.2676C64.3975 36.0869 64.5795 35.9467 64.748 35.9668C64.762 35.9669 64.863 35.9803 65.0176 36.0137C64.9973 34.5733 64.6198 33.5613 63.8779 33.0186C62.657 32.1208 60.8083 32.7441 60.7881 32.7441C60.606 32.8043 60.4172 32.7102 60.3564 32.5361C60.343 32.4959 60.3428 32.4552 60.3428 32.415C60.3356 32.3428 60.2227 31.0459 60.916 29.9629C60.3821 29.6012 57.5363 29.3135 54.9736 29.2666C55.0141 30.0033 54.8317 30.6329 54.3936 31.1152C53.5101 32.0865 51.9521 32.1543 51.5469 32.1543H51.4521C49.7524 31.9935 48.5924 31.4573 47.9785 30.5664C47.4996 29.8697 47.4928 29.1462 47.54 28.7441C43.2295 27.9535 41.9269 26.4922 41.5693 25.916L41.5498 25.8828ZM60.4512 42.8672C59.4191 42.6193 58.326 43.1955 57.7256 43.5908C58.0696 43.698 58.4207 43.8126 58.7715 43.96C59.0015 44.0138 60.006 44.3154 61.1992 45.7012C61.3004 45.7414 61.3822 45.8226 61.4092 45.9365V45.9629C61.7869 46.4386 62.185 47.0353 62.5762 47.7588L62.5889 47.752C62.6422 45.633 62.3601 44.9012 62.3535 44.8779C61.8881 43.7323 61.2538 43.0616 60.4512 42.8672ZM27.1738 34.9814C25.7844 34.8409 24.5092 35.4712 23.7402 35.9736C24.6374 36.0339 25.92 36.241 26.5811 36.9043C26.9115 37.2326 27.0593 37.6284 27.0391 38.084L27.0254 38.3848L26.7227 38.4053C26.7024 38.4053 24.7185 38.5392 23.8955 39.7988C23.5043 40.4018 23.43 41.1792 23.6729 42.1172C23.9898 41.7823 24.4757 41.3998 25.123 41.2725C25.2713 41.2457 25.4133 41.2325 25.5615 41.2324C26.1956 41.2324 26.8505 41.4939 27.5049 42.0098C27.5602 42.051 32.2749 45.8016 35.7754 45.4131H35.7617C36.7465 45.2991 37.5491 44.8636 38.1494 44.1133C38.1697 44.0998 38.2037 44.0665 38.2441 44.0264L38.3926 43.5645C38.4398 43.4239 38.5676 43.3302 38.7158 43.3301H39.0332C39.6066 42.841 40.4157 42.1838 41.3398 41.5205L41.1982 40.6025C40.3213 41.3261 39.7684 41.9163 39.7549 41.9297C38.812 43.1268 36.6795 43.3354 36.585 43.3428C33.0435 43.6242 30.7694 37.8088 30.54 37.1924C29.5687 35.8526 28.4352 35.1087 27.1738 34.9814ZM6.58594 42.2646H6.5791C7.09852 42.7872 7.57798 43.377 7.71289 43.8594C8.11073 43.8125 8.32651 43.7451 8.42773 43.6982C8.13764 43.1422 7.32783 42.459 6.86914 42.124L6.58594 42.2646ZM42.0215 41.9365C42.0418 42.8673 42.325 43.3964 42.46 43.5908H42.501C43.1618 43.5774 43.8025 43.4974 44.4229 43.3701C43.4111 42.9146 42.5611 42.3452 42.0215 41.9365ZM41.3672 42.3379C40.9018 42.6795 40.4634 43.0212 40.0654 43.3428H40.0859C40.1126 43.3428 40.1393 43.3495 40.166 43.3496C40.6787 43.4769 41.1854 43.5378 41.6846 43.5713C41.5497 43.2765 41.4212 42.8672 41.374 42.3379H41.3672ZM44.1396 40.5762C43.6135 40.8508 43.081 41.1662 42.5684 41.5078C43.2025 41.9701 44.1873 42.606 45.3203 43.0146C44.8481 42.5992 44.3019 41.9092 44.167 40.8037L44.1396 40.5762ZM44.9629 41.2998C45.2732 42.2577 45.9809 42.7137 46.2373 42.8545C46.7364 42.6736 47.2022 42.4722 47.6406 42.2578C46.6829 41.9497 45.6105 41.5477 44.9629 41.2998ZM48.0254 40.6494C48.1738 40.9576 48.4102 41.3067 48.7812 41.6484C48.9026 41.5748 49.0104 41.5074 49.125 41.4404V41.4336L49.5967 41.1055C49.111 41.0184 48.5177 40.8705 48.0254 40.6494ZM48.1807 39.7051C47.2363 39.3165 45.8933 39.6852 44.4834 40.3887L44.625 40.4492C44.6452 40.4559 46.3994 41.1588 47.8564 41.6211C47.1348 40.6966 47.1143 39.8252 47.1143 39.7783L47.7617 39.6445V39.6377C47.9439 40.0464 49.226 40.3818 50.2041 40.5225C49.5769 40.1406 48.599 39.819 48.1807 39.7051ZM64.4648 39.7783C64.0129 39.6845 63.5811 39.7455 63.1494 39.9531C63.5879 40.1876 64.2015 40.5964 64.7275 41.1992C65.0648 41.1121 65.7462 40.9985 66.4814 41.166C65.9755 40.5765 65.2675 39.9459 64.4648 39.7783ZM47.5527 37.8623C45.2121 37.7888 42.8647 39.29 41.3672 40.4893L41.8594 40.9316C41.8618 40.934 41.9158 40.9869 42.0146 41.0654C44.153 39.6249 46.717 38.3649 48.4102 39.0684C48.567 39.109 50.0963 39.5449 50.9053 40.1943C50.9113 40.1884 50.9177 40.1876 50.9189 40.1875C50.9661 40.1674 50.9998 40.1402 51.0469 40.1201L51.3613 39.8213C50.2827 38.571 49.0015 37.9158 47.5527 37.8623ZM1.62109 38.5059C1.14911 38.5662 0.413604 38.7867 0.0761719 39.5762C0.553629 39.4368 1.10397 39.3839 1.56738 39.5439C1.54044 39.2225 1.54695 38.8608 1.62109 38.5059ZM15.1807 32.3213C13.3728 35.2357 13.5677 37.6348 13.8848 38.8877C14.5121 37.474 15.9356 35.7387 16.4551 35.1289V35.1221L15.7061 34.0029C15.3757 33.3934 15.2211 32.8236 15.1807 32.3213ZM40.2139 35.3164C39.9238 35.5174 39.5388 35.8257 39.0801 36.2812C38.8912 36.4889 38.7157 36.7035 38.5605 36.9111C38.5808 37.2796 38.7908 38.1842 40.1602 38.7939C40.1399 37.9631 40.1127 36.3549 40.2139 35.3164ZM8.50879 37.4736C8.29967 37.5473 8.09708 37.5815 7.9082 37.6016C8.28592 37.9164 8.6639 38.2913 9.01465 38.7334C8.81905 38.1841 8.6302 37.7416 8.50879 37.4736ZM33.6865 30.1572C33.6741 32.0332 33.9411 35.8076 36.1191 37.6016C34.9049 35.5648 35.1542 31.2024 35.2217 30.2979C35.0727 30.1035 34.4322 29.7685 33.7041 29.4873L33.6865 30.1572ZM42.1768 34.5791C42.1768 35.1686 42.2174 36.1739 42.4062 36.8975V36.8906C43.0537 35.7586 43.4993 35.1555 43.8096 34.834C43.8094 34.8279 43.7975 34.8272 43.7959 34.8271C43.2158 34.6061 42.6827 34.5456 42.1768 34.5791ZM64.5928 29.2598C63.3718 29.099 62.4274 29.3204 61.8203 29.9033C61.1933 30.4994 61.0445 31.3631 61.0107 31.8857C61.3822 31.5973 63.352 30.1509 64.9707 30.7471C65.9285 31.0955 66.5495 32.067 66.8193 33.6279C66.8261 33.7619 66.8256 35.5644 66.5693 36.8105C66.5734 36.8146 66.5775 36.8187 66.5801 36.8213C67.8238 34.6479 68.1599 32.8563 67.5605 31.498C66.7781 29.7161 64.6135 29.2599 64.5928 29.2598ZM64.7412 31.3838C63.9453 31.089 62.9673 31.4776 62.2725 31.8662C62.9199 31.8796 63.6482 32.0203 64.2754 32.4824C65.2468 33.1926 65.7194 34.466 65.6924 36.2549C65.78 36.295 65.8676 36.3351 65.9619 36.3887C66.1504 35.2318 66.1514 33.7212 66.1514 33.6953C65.9288 32.4425 65.4562 31.6451 64.7412 31.3838ZM44.5986 36.3418V36.3486L46.1699 35.8057L44.9893 35.4307L44.5986 36.3418ZM46.2715 32.2617C46.2378 32.2349 42.0752 28.9313 39.2285 29.7822C38.1763 30.1039 37.4139 30.9751 36.9688 32.3887L36.9619 32.3955C36.9603 32.4069 36.8829 32.9669 37.0098 33.8223C37.6101 32.402 38.4602 31.4706 39.5664 31.0352C41.6035 30.2314 43.7082 31.3906 43.7959 31.4375L43.8564 31.4775C46.069 33.4607 47.6141 33.9033 48.4775 33.9502C47.9649 33.6085 47.2158 33.0656 46.2715 32.2617ZM11.3691 32.8506C11.4096 33.0516 11.4368 33.2801 11.457 33.5146C11.538 33.2868 11.6121 33.0788 11.6729 32.918C11.5717 32.8979 11.4703 32.8774 11.3691 32.8506ZM48.207 28.8574C48.1733 29.1589 48.1873 29.6957 48.5381 30.1982C49.0373 30.9149 50.0289 31.3505 51.499 31.4912H51.54C51.7903 31.4912 53.1865 31.4575 53.8945 30.6738V30.667C54.2115 30.3119 54.3393 29.8359 54.2988 29.2598C53.9346 29.2598 53.5833 29.2529 53.2393 29.2529C52.8547 30.1842 51.971 30.4395 51.4111 30.4395C51.3506 30.4394 51.2901 30.4326 51.2363 30.4326C49.6311 30.4326 49.2125 29.4745 49.1045 28.9854C48.7875 28.9452 48.4971 28.9043 48.207 28.8574ZM49.8262 29.0654C49.9476 29.3267 50.2312 29.6347 50.8721 29.7285C50.6428 29.541 50.5012 29.2666 50.4404 29.1191C50.2313 29.1057 50.0218 29.0855 49.8262 29.0654ZM52.1807 29.2266C52.1065 29.3739 51.9851 29.5617 51.8232 29.709C52.0526 29.642 52.3091 29.5072 52.4912 29.2393C52.3901 29.2326 52.2886 29.2266 52.1875 29.2266H52.1807ZM42.042 25.3066C42.0487 25.3401 42.0482 25.3739 42.0684 25.4141V25.4346C42.0689 25.4411 42.0819 25.4476 42.082 25.4541C42.1023 25.5144 43.472 28.6905 54.8115 28.5967H54.8184C57.3547 28.6302 60.316 28.8247 61.3076 29.4746C61.321 29.4613 61.341 29.4411 61.3545 29.4277C61.4017 29.3808 61.4558 29.3399 61.5098 29.293C60.2344 27.6115 54.3997 27.3506 52.167 27.3975C44.9829 27.5716 42.7435 26.1709 42.042 25.3066ZM51.3379 29.2393H51.3438C51.3441 29.2389 51.3652 29.2197 51.4053 29.1865C51.3582 29.1798 51.3107 29.1797 51.2637 29.1797C51.2907 29.213 51.3379 29.2393 51.3379 29.2393ZM18.3984 24.9854C18.9111 25.7492 19.5783 26.9886 19.3018 28.0537C19.4097 28.0403 19.5251 28.04 19.6465 28.04C19.6869 28.0401 19.7341 28.0469 19.7744 28.0469H19.8418C19.8754 28.0469 19.909 28.0605 19.9492 28.0605C20.0302 28.0672 20.1115 28.0735 20.1992 28.0869C20.3206 28.1003 20.442 28.1207 20.5566 28.1475C20.5836 28.1542 20.6107 28.168 20.6377 28.168C20.7792 28.2014 20.914 28.2413 21.042 28.2881C21.1094 28.3082 21.1777 28.3423 21.2451 28.3691C21.3056 28.3958 21.3593 28.4225 21.4131 28.4492C21.5008 28.4894 21.5892 28.5224 21.6836 28.5693C21.5688 27.5643 21.0017 25.6219 18.3984 24.9854ZM67.4863 21.6816C67.4796 22.2109 67.3586 22.848 66.9336 23.4912C66.1511 24.6637 64.6192 25.4475 62.3662 25.8428C63.5533 25.9567 64.8623 26.0502 65.9482 26.0703C66.2518 25.9765 68.1272 25.2662 67.6348 22.3584V22.3525C67.6348 22.3056 67.6212 22.0099 67.4863 21.6816ZM9.58105 23.625C8.98753 23.5112 8.37351 23.5987 7.75977 23.8867C8.44783 24.1815 9.46715 24.7242 9.8584 25.4746C9.89869 25.5481 9.92525 25.615 9.95215 25.6885C10.3434 25.3535 10.9102 24.9783 11.5645 24.8242C11.1732 24.3954 10.4781 23.7992 9.58105 23.625ZM59.3105 20.4697C59.4049 20.8583 59.4252 21.3204 59.2363 21.8027C58.872 22.7273 57.8536 23.4447 56.1875 23.9404C57.5569 23.9538 59.0347 23.9066 59.7295 23.6855C59.9132 23.5408 60.6833 22.8957 60.7344 22.1533V21.9971C60.7006 21.4745 60.2622 20.9851 59.4326 20.543L59.3105 20.4697Z" fill="#B98304"/>
<path d="M72.5 21.2891V62.71L36.5 83.4229L0.5 62.71V21.2891L36.5 0.576172L72.5 21.2891Z" stroke="#B98304"/>
<defs>
<linearGradient id="paint0_linear_269_243" x1="36.8783" y1="47.25" x2="73.6813" y2="23.5084" gradientUnits="userSpaceOnUse">
<stop stop-color="#ED002D" stop-opacity="0"/>
<stop offset="1" stop-color="#ED002D"/>
</linearGradient>
</defs>
</svg>
