<svg xmlns="http://www.w3.org/2000/svg" width="325" height="160" viewBox="0 0 325 160"><rect width="100%" height="100%" fill="#DDDDDD"/><path fill="#999999" d="m69.71 73.615-2.8-.49q.33-2.24 1.25-3.93t2.31-2.81q1.39-1.13 3.18-1.7 1.8-.57 3.86-.57 2.15 0 3.88.61t2.96 1.7q1.23 1.08 1.88 2.55.66 1.46.66 3.16 0 1.48-.34 2.61-.33 1.13-.95 1.97-.63.83-1.55 1.41-.93.59-2.09.97 2.8.88 4.17 2.69 1.38 1.81 1.38 4.54 0 2.32-.86 4.1-.86 1.79-2.32 3-1.46 1.22-3.39 1.84-1.92.62-4.07.62-2.35 0-4.09-.53-1.74-.54-3.03-1.59-1.29-1.06-2.19-2.58-.91-1.53-1.55-3.53l2.34-.97q.93-.39 1.73-.2.81.18 1.18.87.38.75.85 1.48.46.73 1.1 1.3.65.57 1.52.93.87.35 2.07.35 1.36 0 2.37-.44t1.69-1.15q.67-.71 1.01-1.58.33-.87.33-1.75 0-1.12-.24-2.03-.23-.92-.99-1.56-.75-.65-2.16-1.01-1.4-.37-3.77-.37v-3.78q1.96-.02 3.25-.37 1.29-.34 2.05-.95.76-.62 1.06-1.48t.3-1.89q0-2.19-1.22-3.33-1.23-1.14-3.27-1.14-.94 0-1.74.27t-1.43.75-1.06 1.13q-.43.64-.65 1.42-.36.99-.96 1.31-.59.32-1.66.15m32.94 16.98h7.97q.86 0 1.37.49.5.48.5 1.28v3.18H91.16v-1.76q0-.54.23-1.13t.72-1.07l9.44-9.46q1.18-1.2 2.12-2.3.93-1.09 1.56-2.17.62-1.07.95-2.18.34-1.11.34-2.33 0-1.12-.33-1.97-.32-.85-.91-1.43t-1.42-.87-1.86-.29q-.95 0-1.75.27-.81.27-1.43.75t-1.05 1.13q-.43.64-.65 1.42-.37.99-.95 1.31t-1.67.15l-2.8-.49q.32-2.24 1.25-3.93.92-1.69 2.31-2.81 1.39-1.13 3.18-1.7 1.8-.57 3.86-.57 2.15 0 3.94.63 1.78.64 3.05 1.8t1.98 2.79q.71 1.64.71 3.63 0 1.72-.51 3.19-.5 1.46-1.35 2.79t-1.99 2.58-2.39 2.54l-7.01 7.16q1.01-.3 2.01-.46 1-.17 1.91-.17m21.65-21.32-1.1 6.47q1.03-.22 1.98-.31.94-.1 1.83-.1 2.45 0 4.32.73t3.14 2.02q1.26 1.29 1.91 3.02.64 1.73.64 3.73 0 2.48-.87 4.52t-2.42 3.49q-1.54 1.45-3.66 2.25-2.12.79-4.61.79-1.46 0-2.78-.3-1.31-.3-2.46-.8-1.15-.51-2.13-1.16-.97-.66-1.75-1.39l1.64-2.26q.51-.73 1.35-.73.54 0 1.1.34.56.35 1.28.76t1.69.75q.98.34 2.36.34 1.46 0 2.58-.47t1.86-1.32 1.12-2.02q.37-1.17.37-2.55 0-2.54-1.47-3.97t-4.35-1.43q-2.22 0-4.54.82l-3.31-.95 2.58-15.09h15.35v2.26q0 1.14-.71 1.85t-2.41.71zm48.18 19.15-2.82 2.78-7.29-7.29-7.35 7.33-2.82-2.77 7.36-7.38-7.01-7.01 2.79-2.79 7.01 7.01 6.97-6.97 2.84 2.8-6.99 6.98zm29.43 3.14h5.59v3.98h-17.2v-3.98h6.3v-18.12q0-1.08.07-2.22l-4.48 3.74q-.38.31-.76.38-.38.08-.71.01-.33-.06-.59-.22-.26-.17-.39-.36l-1.67-2.3 9.48-8.06h4.36zm28.73-27.11-9.23 11.29-1.07 1.33q.9-.45 1.94-.7 1.05-.24 2.25-.24 1.76 0 3.43.58 1.66.58 2.93 1.75t2.05 2.91q.77 1.74.77 4.06 0 2.18-.8 4.08-.79 1.9-2.23 3.32t-3.47 2.24q-2.04.81-4.49.81-2.49 0-4.47-.79-1.98-.8-3.37-2.23-1.4-1.43-2.14-3.44-.75-2.01-.75-4.46 0-2.19.9-4.5.89-2.31 2.76-4.81l7.42-9.95q.38-.52 1.13-.88.74-.37 1.71-.37zm-8.02 27.09q1.26 0 2.33-.43 1.06-.43 1.83-1.2.76-.78 1.19-1.82t.43-2.27q0-1.33-.41-2.4-.41-1.06-1.16-1.8t-1.81-1.13q-1.05-.39-2.32-.39t-2.3.43-1.76 1.2q-.73.76-1.14 1.8t-.41 2.25q0 1.29.36 2.35.35 1.07 1.05 1.82t1.73 1.17 2.39.42m36.37-11.54q0 4.06-.87 7.06t-2.4 4.95q-1.54 1.96-3.64 2.92-2.09.95-4.52.95t-4.51-.95q-2.07-.96-3.6-2.92-1.53-1.95-2.39-4.95t-.86-7.06q0-4.09.86-7.08t2.39-4.94q1.53-1.96 3.6-2.92 2.08-.95 4.51-.95t4.52.95q2.1.96 3.64 2.92 1.53 1.95 2.4 4.94t.87 7.08m-5.48 0q0-3.38-.49-5.59-.5-2.22-1.33-3.53-.82-1.31-1.9-1.84-1.07-.53-2.23-.53-1.14 0-2.21.53-1.06.53-1.88 1.84t-1.3 3.53q-.48 2.21-.48 5.59 0 3.37.48 5.59.48 2.21 1.3 3.52t1.88 1.84q1.07.53 2.21.53 1.16 0 2.23-.53 1.08-.53 1.9-1.84.83-1.31 1.33-3.52.49-2.22.49-5.59"/></svg>